<svg width="170" height="25" viewBox="0 0 170 25" fill="none" xmlns="http://www.w3.org/2000/svg">
<circle cx="41.5789" cy="12.5" r="12.5" fill="white"/>
<path d="M63.0016 7.25083H64.6335L67.0364 14.1189L69.4392 7.25083H71.0711L67.6917 16.6053H66.381L63.0016 7.25083ZM62.1214 7.25083H63.7469L64.0424 13.9454V16.6053H62.1214V7.25083ZM70.3258 7.25083H71.9577V16.6053H70.0303V13.9454L70.3258 7.25083ZM77.2838 15.0376V11.9409C77.2838 11.7182 77.2474 11.5276 77.1746 11.3691C77.1018 11.2063 76.9883 11.08 76.8341 10.99C76.6842 10.9001 76.4893 10.8551 76.2495 10.8551C76.0439 10.8551 75.8661 10.8915 75.7162 10.9643C75.5663 11.0329 75.4507 11.1335 75.3693 11.2663C75.2879 11.3948 75.2472 11.5468 75.2472 11.7225H73.3969C73.3969 11.4269 73.4654 11.1464 73.6025 10.8808C73.7395 10.6153 73.9387 10.3818 74.2 10.1805C74.4612 9.97493 74.7718 9.81431 75.1316 9.69866C75.4956 9.58302 75.9025 9.52519 76.3523 9.52519C76.8919 9.52519 77.3717 9.61514 77.7914 9.79503C78.2112 9.97493 78.541 10.2448 78.7808 10.6046C79.025 10.9643 79.147 11.4141 79.147 11.9537V14.9284C79.147 15.3096 79.1706 15.6223 79.2177 15.8664C79.2648 16.1063 79.3333 16.3162 79.4233 16.496V16.6053H77.5537C77.4637 16.4168 77.3952 16.1812 77.3481 15.8985C77.3053 15.6116 77.2838 15.3246 77.2838 15.0376ZM77.528 12.3714L77.5408 13.4186H76.5065C76.2623 13.4186 76.0503 13.4464 75.8704 13.5021C75.6905 13.5578 75.5427 13.637 75.4271 13.7398C75.3114 13.8383 75.2258 13.954 75.1701 14.0868C75.1187 14.2195 75.093 14.3652 75.093 14.5237C75.093 14.6821 75.1294 14.8256 75.2022 14.9541C75.275 15.0783 75.38 15.1768 75.517 15.2496C75.6541 15.3182 75.8147 15.3524 75.9989 15.3524C76.2773 15.3524 76.5193 15.2968 76.7249 15.1854C76.9305 15.074 77.089 14.937 77.2003 14.7742C77.316 14.6115 77.3759 14.4573 77.3802 14.3116L77.8685 15.0955C77.8 15.2711 77.7057 15.4531 77.5858 15.6416C77.4702 15.83 77.3224 16.0078 77.1425 16.1748C76.9626 16.3376 76.7463 16.4725 76.4936 16.5796C76.2409 16.6824 75.9411 16.7338 75.5941 16.7338C75.153 16.7338 74.7525 16.646 74.3927 16.4704C74.0372 16.2905 73.7545 16.0442 73.5446 15.7315C73.339 15.4145 73.2363 15.0548 73.2363 14.6521C73.2363 14.2881 73.3048 13.9647 73.4418 13.682C73.5789 13.3993 73.7802 13.1616 74.0458 12.9689C74.3156 12.7718 74.6518 12.6241 75.0545 12.5256C75.4571 12.4228 75.9239 12.3714 76.4551 12.3714H77.528ZM82.4236 11.1699V16.6053H80.5733V9.65369H82.3144L82.4236 11.1699ZM84.5181 9.60871L84.486 11.3241C84.396 11.3113 84.2868 11.3006 84.1583 11.292C84.0341 11.2792 83.9206 11.2727 83.8178 11.2727C83.5565 11.2727 83.3295 11.307 83.1368 11.3755C82.9483 11.4398 82.7899 11.5361 82.6614 11.6646C82.5372 11.7931 82.4429 11.9495 82.3787 12.1336C82.3187 12.3178 82.2844 12.5277 82.2759 12.7633L81.9032 12.6476C81.9032 12.1979 81.9482 11.7846 82.0382 11.4076C82.1281 11.0264 82.2587 10.6945 82.4301 10.4118C82.6057 10.1291 82.8198 9.91068 83.0725 9.75648C83.3253 9.60229 83.6144 9.52519 83.9399 9.52519C84.0427 9.52519 84.1476 9.53376 84.2547 9.55089C84.3618 9.56374 84.4496 9.58302 84.5181 9.60871ZM87.2422 6.73043V16.6053H85.3919V6.73043H87.2422ZM91.6239 9.65369L88.6043 13.0974L86.9852 14.7357L86.3106 13.3993L87.5956 11.7674L89.4009 9.65369H91.6239ZM89.7029 16.6053L87.647 13.3929L88.9255 12.275L91.8359 16.6053H89.7029ZM95.4916 16.7338C94.9519 16.7338 94.4679 16.6481 94.0396 16.4768C93.6113 16.3012 93.2472 16.0592 92.9474 15.7508C92.6519 15.4424 92.4248 15.0847 92.2664 14.6778C92.1079 14.2667 92.0287 13.8298 92.0287 13.3672V13.1102C92.0287 12.5834 92.1036 12.1015 92.2535 11.6646C92.4034 11.2278 92.6176 10.8487 92.896 10.5275C93.1787 10.2062 93.5213 9.95993 93.924 9.78861C94.3266 9.613 94.7806 9.52519 95.286 9.52519C95.7786 9.52519 96.2155 9.60657 96.5967 9.76933C96.9779 9.93209 97.297 10.1634 97.5539 10.4632C97.8152 10.763 98.0122 11.1228 98.145 11.5426C98.2778 11.958 98.3442 12.4206 98.3442 12.9303V13.7013H92.8189V12.4677H96.526V12.3264C96.526 12.0694 96.4789 11.8402 96.3846 11.6389C96.2947 11.4333 96.1576 11.2706 95.9735 11.1507C95.7893 11.0307 95.5537 10.9708 95.2667 10.9708C95.0226 10.9708 94.8127 11.0243 94.6371 11.1314C94.4615 11.2385 94.318 11.3884 94.2066 11.5811C94.0996 11.7739 94.0182 12.0009 93.9625 12.2621C93.9111 12.5191 93.8854 12.8018 93.8854 13.1102V13.3672C93.8854 13.6456 93.924 13.9026 94.0011 14.1382C94.0824 14.3737 94.1959 14.5772 94.3416 14.7485C94.4915 14.9198 94.6714 15.0526 94.8812 15.1469C95.0954 15.2411 95.3374 15.2882 95.6072 15.2882C95.9413 15.2882 96.2519 15.2239 96.5388 15.0955C96.8301 14.9627 97.0807 14.7635 97.2905 14.498L98.19 15.4745C98.0444 15.6844 97.8452 15.8857 97.5925 16.0784C97.3441 16.2712 97.0442 16.4297 96.693 16.5539C96.3418 16.6738 95.9413 16.7338 95.4916 16.7338ZM102.803 9.65369V10.9643H98.7554V9.65369H102.803ZM99.7576 7.93828H101.608V14.5108C101.608 14.7121 101.634 14.8663 101.685 14.9734C101.741 15.0805 101.822 15.1554 101.929 15.1982C102.036 15.2368 102.171 15.2561 102.334 15.2561C102.45 15.2561 102.552 15.2518 102.642 15.2432C102.737 15.2304 102.816 15.2175 102.88 15.2047L102.886 16.5667C102.728 16.6181 102.557 16.6588 102.373 16.6888C102.188 16.7188 101.985 16.7338 101.762 16.7338C101.355 16.7338 101 16.6674 100.696 16.5346C100.396 16.3975 100.165 16.1791 100.002 15.8793C99.839 15.5795 99.7576 15.1854 99.7576 14.6971V7.93828ZM105.707 10.99V19.278H103.857V9.65369H105.572L105.707 10.99ZM110.108 13.0524V13.1873C110.108 13.6927 110.048 14.1617 109.928 14.5943C109.812 15.0269 109.641 15.4038 109.414 15.7251C109.187 16.042 108.904 16.2905 108.566 16.4704C108.232 16.646 107.846 16.7338 107.41 16.7338C106.985 16.7338 106.617 16.6481 106.304 16.4768C105.992 16.3054 105.728 16.0656 105.514 15.7572C105.304 15.4445 105.135 15.0826 105.007 14.6714C104.878 14.2602 104.78 13.8191 104.711 13.3479V12.9946C104.78 12.4891 104.878 12.0266 105.007 11.6068C105.135 11.1828 105.304 10.8166 105.514 10.5082C105.728 10.1955 105.99 9.95351 106.298 9.78218C106.611 9.61086 106.977 9.52519 107.397 9.52519C107.838 9.52519 108.225 9.60871 108.56 9.77576C108.898 9.9428 109.181 10.1827 109.408 10.4953C109.639 10.808 109.812 11.1806 109.928 11.6132C110.048 12.0458 110.108 12.5256 110.108 13.0524ZM108.251 13.1873V13.0524C108.251 12.7568 108.225 12.4849 108.174 12.2364C108.127 11.9837 108.05 11.7631 107.943 11.5747C107.84 11.3862 107.703 11.2406 107.532 11.1378C107.365 11.0307 107.161 10.9772 106.921 10.9772C106.669 10.9772 106.452 11.0179 106.272 11.0993C106.097 11.1806 105.953 11.2984 105.842 11.4526C105.731 11.6068 105.647 11.791 105.591 12.0051C105.536 12.2193 105.501 12.4613 105.489 12.7311V13.6242C105.51 13.9411 105.57 14.226 105.668 14.4787C105.767 14.7271 105.919 14.9241 106.125 15.0698C106.33 15.2154 106.6 15.2882 106.934 15.2882C107.178 15.2882 107.384 15.2347 107.551 15.1276C107.718 15.0162 107.853 14.8642 107.956 14.6714C108.063 14.4787 108.138 14.256 108.18 14.0032C108.228 13.7505 108.251 13.4786 108.251 13.1873ZM113.211 6.73685V16.6053H111.354V6.73685H113.211ZM118.492 15.0376V11.9409C118.492 11.7182 118.456 11.5276 118.383 11.3691C118.31 11.2063 118.197 11.08 118.042 10.99C117.893 10.9001 117.698 10.8551 117.458 10.8551C117.252 10.8551 117.074 10.8915 116.925 10.9643C116.775 11.0329 116.659 11.1335 116.578 11.2663C116.496 11.3948 116.456 11.5468 116.456 11.7225H114.605C114.605 11.4269 114.674 11.1464 114.811 10.8808C114.948 10.6153 115.147 10.3818 115.408 10.1805C115.67 9.97493 115.98 9.81431 116.34 9.69866C116.704 9.58302 117.111 9.52519 117.561 9.52519C118.1 9.52519 118.58 9.61514 119 9.79503C119.42 9.97493 119.749 10.2448 119.989 10.6046C120.233 10.9643 120.355 11.4141 120.355 11.9537V14.9284C120.355 15.3096 120.379 15.6223 120.426 15.8664C120.473 16.1063 120.542 16.3162 120.632 16.496V16.6053H118.762C118.672 16.4168 118.604 16.1812 118.556 15.8985C118.514 15.6116 118.492 15.3246 118.492 15.0376ZM118.736 12.3714L118.749 13.4186H117.715C117.471 13.4186 117.259 13.4464 117.079 13.5021C116.899 13.5578 116.751 13.637 116.635 13.7398C116.52 13.8383 116.434 13.954 116.378 14.0868C116.327 14.2195 116.301 14.3652 116.301 14.5237C116.301 14.6821 116.338 14.8256 116.411 14.9541C116.483 15.0783 116.588 15.1768 116.725 15.2496C116.862 15.3182 117.023 15.3524 117.207 15.3524C117.486 15.3524 117.728 15.2968 117.933 15.1854C118.139 15.074 118.297 14.937 118.409 14.7742C118.524 14.6115 118.584 14.4573 118.589 14.3116L119.077 15.0955C119.008 15.2711 118.914 15.4531 118.794 15.6416C118.679 15.83 118.531 16.0078 118.351 16.1748C118.171 16.3376 117.955 16.4725 117.702 16.5796C117.449 16.6824 117.149 16.7338 116.803 16.7338C116.361 16.7338 115.961 16.646 115.601 16.4704C115.246 16.2905 114.963 16.0442 114.753 15.7315C114.547 15.4145 114.445 15.0548 114.445 14.6521C114.445 14.2881 114.513 13.9647 114.65 13.682C114.787 13.3993 114.989 13.1616 115.254 12.9689C115.524 12.7718 115.86 12.6241 116.263 12.5256C116.665 12.4228 117.132 12.3714 117.663 12.3714H118.736ZM124.654 15.2882C124.881 15.2882 125.082 15.2454 125.257 15.1597C125.433 15.0698 125.57 14.9455 125.669 14.7871C125.771 14.6243 125.825 14.4337 125.829 14.2153H127.57C127.566 14.7035 127.435 15.1383 127.178 15.5195C126.921 15.8964 126.577 16.1941 126.144 16.4125C125.711 16.6267 125.228 16.7338 124.692 16.7338C124.152 16.7338 123.681 16.6438 123.279 16.4639C122.88 16.284 122.548 16.0356 122.283 15.7187C122.017 15.3974 121.818 15.0248 121.685 14.6007C121.553 14.1724 121.486 13.7141 121.486 13.2259V13.0395C121.486 12.547 121.553 12.0887 121.685 11.6646C121.818 11.2363 122.017 10.8637 122.283 10.5467C122.548 10.2255 122.88 9.97493 123.279 9.79503C123.677 9.61514 124.144 9.52519 124.679 9.52519C125.249 9.52519 125.748 9.63441 126.176 9.85285C126.609 10.0713 126.947 10.384 127.191 10.7909C127.44 11.1935 127.566 11.6711 127.57 12.2236H125.829C125.825 11.9923 125.776 11.7824 125.682 11.594C125.592 11.4055 125.459 11.2556 125.283 11.1442C125.112 11.0286 124.9 10.9708 124.647 10.9708C124.377 10.9708 124.157 11.0286 123.985 11.1442C123.814 11.2556 123.681 11.4098 123.587 11.6068C123.493 11.7996 123.426 12.0201 123.388 12.2686C123.354 12.5127 123.336 12.7697 123.336 13.0395V13.2259C123.336 13.4957 123.354 13.7548 123.388 14.0032C123.422 14.2517 123.486 14.4723 123.581 14.665C123.679 14.8577 123.814 15.0098 123.985 15.1212C124.157 15.2325 124.379 15.2882 124.654 15.2882ZM131.843 16.7338C131.303 16.7338 130.819 16.6481 130.391 16.4768C129.963 16.3012 129.598 16.0592 129.299 15.7508C129.003 15.4424 128.776 15.0847 128.618 14.6778C128.459 14.2667 128.38 13.8298 128.38 13.3672V13.1102C128.38 12.5834 128.455 12.1015 128.605 11.6646C128.755 11.2278 128.969 10.8487 129.247 10.5275C129.53 10.2062 129.873 9.95993 130.275 9.78861C130.678 9.613 131.132 9.52519 131.637 9.52519C132.13 9.52519 132.567 9.60657 132.948 9.76933C133.329 9.93209 133.648 10.1634 133.905 10.4632C134.166 10.763 134.363 11.1228 134.496 11.5426C134.629 11.958 134.695 12.4206 134.695 12.9303V13.7013H129.17V12.4677H132.877V12.3264C132.877 12.0694 132.83 11.8402 132.736 11.6389C132.646 11.4333 132.509 11.2706 132.325 11.1507C132.141 11.0307 131.905 10.9708 131.618 10.9708C131.374 10.9708 131.164 11.0243 130.988 11.1314C130.813 11.2385 130.669 11.3884 130.558 11.5811C130.451 11.7739 130.369 12.0009 130.314 12.2621C130.262 12.5191 130.237 12.8018 130.237 13.1102V13.3672C130.237 13.6456 130.275 13.9026 130.352 14.1382C130.434 14.3737 130.547 14.5772 130.693 14.7485C130.843 14.9198 131.023 15.0526 131.232 15.1469C131.447 15.2411 131.689 15.2882 131.958 15.2882C132.293 15.2882 132.603 15.2239 132.89 15.0955C133.181 14.9627 133.432 14.7635 133.642 14.498L134.541 15.4745C134.396 15.6844 134.196 15.8857 133.944 16.0784C133.695 16.2712 133.395 16.4297 133.044 16.5539C132.693 16.6738 132.293 16.7338 131.843 16.7338Z" fill="white"/>
</svg>
