<svg width="170" height="25" viewBox="0 0 170 25" fill="none" xmlns="http://www.w3.org/2000/svg">
<circle cx="41.5789" cy="12.5" r="12.5" fill="#454545"/>
<path d="M63.0014 7.25078H64.6333L67.0362 14.1188L69.439 7.25078H71.0709L67.6915 16.6052H66.3809L63.0014 7.25078ZM62.1212 7.25078H63.7467L64.0422 13.9454V16.6052H62.1212V7.25078ZM70.3257 7.25078H71.9575V16.6052H70.0301V13.9454L70.3257 7.25078ZM77.2837 15.0376V11.9409C77.2837 11.7181 77.2473 11.5275 77.1744 11.3691C77.1016 11.2063 76.9881 11.0799 76.8339 10.99C76.684 10.9 76.4891 10.8551 76.2493 10.8551C76.0437 10.8551 75.8659 10.8915 75.716 10.9643C75.5661 11.0328 75.4505 11.1335 75.3691 11.2663C75.2877 11.3947 75.247 11.5468 75.247 11.7224H73.3967C73.3967 11.4269 73.4652 11.1463 73.6023 10.8808C73.7393 10.6152 73.9385 10.3818 74.1998 10.1805C74.4611 9.97488 74.7716 9.81426 75.1314 9.69862C75.4954 9.58297 75.9023 9.52515 76.3521 9.52515C76.8918 9.52515 77.3715 9.61509 77.7912 9.79499C78.211 9.97488 78.5408 10.2447 78.7806 10.6045C79.0248 10.9643 79.1468 11.414 79.1468 11.9537V14.9284C79.1468 15.3096 79.1704 15.6222 79.2175 15.8664C79.2646 16.1062 79.3332 16.3161 79.4231 16.496V16.6052H77.5535C77.4636 16.4168 77.395 16.1812 77.3479 15.8985C77.3051 15.6115 77.2837 15.3246 77.2837 15.0376ZM77.5278 12.3713L77.5407 13.4185H76.5063C76.2621 13.4185 76.0501 13.4464 75.8702 13.5021C75.6903 13.5578 75.5426 13.637 75.4269 13.7398C75.3113 13.8383 75.2256 13.9539 75.1699 14.0867C75.1185 14.2195 75.0928 14.3651 75.0928 14.5236C75.0928 14.6821 75.1292 14.8256 75.202 14.9541C75.2749 15.0783 75.3798 15.1768 75.5169 15.2496C75.6539 15.3181 75.8145 15.3524 75.9987 15.3524C76.2771 15.3524 76.5191 15.2967 76.7247 15.1854C76.9303 15.074 77.0888 14.9369 77.2001 14.7742C77.3158 14.6114 77.3758 14.4572 77.38 14.3116L77.8683 15.0954C77.7998 15.271 77.7056 15.4531 77.5856 15.6415C77.47 15.83 77.3222 16.0077 77.1423 16.1748C76.9624 16.3375 76.7461 16.4724 76.4934 16.5795C76.2407 16.6823 75.9409 16.7337 75.594 16.7337C75.1528 16.7337 74.7523 16.6459 74.3925 16.4703C74.037 16.2904 73.7543 16.0441 73.5445 15.7315C73.3389 15.4145 73.2361 15.0547 73.2361 14.6521C73.2361 14.288 73.3046 13.9647 73.4417 13.682C73.5787 13.3993 73.78 13.1616 74.0456 12.9688C74.3154 12.7718 74.6517 12.624 75.0543 12.5255C75.4569 12.4227 75.9238 12.3713 76.4549 12.3713H77.5278ZM82.4235 11.1699V16.6052H80.5731V9.65364H82.3142L82.4235 11.1699ZM84.5179 9.60867L84.4858 11.3241C84.3959 11.3112 84.2866 11.3005 84.1581 11.292C84.0339 11.2791 83.9204 11.2727 83.8176 11.2727C83.5564 11.2727 83.3294 11.3069 83.1366 11.3755C82.9482 11.4397 82.7897 11.5361 82.6612 11.6646C82.537 11.7931 82.4427 11.9494 82.3785 12.1336C82.3185 12.3178 82.2843 12.5276 82.2757 12.7632L81.9031 12.6476C81.9031 12.1978 81.948 11.7845 82.038 11.4076C82.1279 11.0264 82.2586 10.6945 82.4299 10.4118C82.6055 10.1291 82.8197 9.91063 83.0724 9.75644C83.3251 9.60224 83.6142 9.52515 83.9397 9.52515C84.0425 9.52515 84.1474 9.53371 84.2545 9.55085C84.3616 9.5637 84.4494 9.58297 84.5179 9.60867ZM87.242 6.73038V16.6052H85.3917V6.73038H87.242ZM91.6237 9.65364L88.6041 13.0973L86.985 14.7356L86.3104 13.3993L87.5954 11.7674L89.4007 9.65364H91.6237ZM89.7027 16.6052L87.6468 13.3928L88.9253 12.2749L91.8357 16.6052H89.7027ZM95.4914 16.7337C94.9517 16.7337 94.4677 16.6481 94.0394 16.4767C93.6111 16.3011 93.247 16.0591 92.9472 15.7507C92.6517 15.4423 92.4247 15.0847 92.2662 14.6778C92.1077 14.2666 92.0285 13.8297 92.0285 13.3671V13.1102C92.0285 12.5833 92.1034 12.1015 92.2533 11.6646C92.4032 11.2277 92.6174 10.8486 92.8958 10.5274C93.1785 10.2062 93.5212 9.95989 93.9238 9.78856C94.3264 9.61295 94.7804 9.52515 95.2858 9.52515C95.7784 9.52515 96.2153 9.60653 96.5965 9.76929C96.9777 9.93205 97.2968 10.1633 97.5538 10.4632C97.815 10.763 98.0121 11.1228 98.1448 11.5425C98.2776 11.958 98.344 12.4206 98.344 12.9303V13.7012H92.8187V12.4677H96.5258V12.3263C96.5258 12.0693 96.4787 11.8402 96.3845 11.6389C96.2945 11.4333 96.1574 11.2705 95.9733 11.1506C95.7891 11.0307 95.5535 10.9707 95.2665 10.9707C95.0224 10.9707 94.8125 11.0243 94.6369 11.1313C94.4613 11.2384 94.3178 11.3883 94.2065 11.5811C94.0994 11.7738 94.018 12.0008 93.9623 12.2621C93.9109 12.5191 93.8852 12.8018 93.8852 13.1102V13.3671C93.8852 13.6456 93.9238 13.9025 94.0009 14.1381C94.0823 14.3737 94.1958 14.5771 94.3414 14.7485C94.4913 14.9198 94.6712 15.0526 94.8811 15.1468C95.0952 15.241 95.3372 15.2882 95.6071 15.2882C95.9411 15.2882 96.2517 15.2239 96.5386 15.0954C96.8299 14.9626 97.0805 14.7635 97.2903 14.4979L98.1898 15.4745C98.0442 15.6843 97.845 15.8857 97.5923 16.0784C97.3439 16.2711 97.0441 16.4296 96.6928 16.5538C96.3416 16.6738 95.9411 16.7337 95.4914 16.7337ZM102.803 9.65364V10.9643H98.7552V9.65364H102.803ZM99.7575 7.93823H101.608V14.5108C101.608 14.7121 101.633 14.8663 101.685 14.9733C101.741 15.0804 101.822 15.1554 101.929 15.1982C102.036 15.2368 102.171 15.256 102.334 15.256C102.449 15.256 102.552 15.2517 102.642 15.2432C102.736 15.2303 102.816 15.2175 102.88 15.2046L102.886 16.5667C102.728 16.6181 102.557 16.6588 102.372 16.6887C102.188 16.7187 101.985 16.7337 101.762 16.7337C101.355 16.7337 101 16.6673 100.695 16.5346C100.396 16.3975 100.164 16.179 100.002 15.8792C99.8388 15.5794 99.7575 15.1854 99.7575 14.6971V7.93823ZM105.707 10.99V19.2779H103.856V9.65364H105.572L105.707 10.99ZM110.108 13.0523V13.1873C110.108 13.6927 110.048 14.1617 109.928 14.5943C109.812 15.0269 109.641 15.4038 109.414 15.725C109.187 16.042 108.904 16.2904 108.566 16.4703C108.232 16.6459 107.846 16.7337 107.409 16.7337C106.985 16.7337 106.617 16.6481 106.304 16.4767C105.992 16.3054 105.728 16.0655 105.514 15.7572C105.304 15.4445 105.135 15.0826 105.006 14.6714C104.878 14.2602 104.779 13.819 104.711 13.3479V12.9945C104.779 12.4891 104.878 12.0265 105.006 11.6068C105.135 11.1827 105.304 10.8165 105.514 10.5081C105.728 10.1955 105.989 9.95346 106.298 9.78214C106.611 9.61081 106.977 9.52515 107.396 9.52515C107.838 9.52515 108.225 9.60867 108.559 9.77571C108.898 9.94276 109.18 10.1826 109.407 10.4953C109.639 10.808 109.812 11.1806 109.928 11.6132C110.048 12.0458 110.108 12.5255 110.108 13.0523ZM108.251 13.1873V13.0523C108.251 12.7568 108.225 12.4848 108.174 12.2364C108.127 11.9837 108.05 11.7631 107.943 11.5746C107.84 11.3862 107.703 11.2406 107.531 11.1378C107.364 11.0307 107.161 10.9771 106.921 10.9771C106.668 10.9771 106.452 11.0178 106.272 11.0992C106.097 11.1806 105.953 11.2984 105.842 11.4526C105.73 11.6068 105.647 11.7909 105.591 12.0051C105.535 12.2193 105.501 12.4613 105.488 12.7311V13.6241C105.51 13.9411 105.57 14.2259 105.668 14.4786C105.767 14.7271 105.919 14.9241 106.124 15.0697C106.33 15.2153 106.6 15.2882 106.934 15.2882C107.178 15.2882 107.384 15.2346 107.551 15.1275C107.718 15.0162 107.853 14.8641 107.955 14.6714C108.063 14.4786 108.137 14.2559 108.18 14.0032C108.227 13.7505 108.251 13.4785 108.251 13.1873ZM113.211 6.7368V16.6052H111.354V6.7368H113.211ZM118.492 15.0376V11.9409C118.492 11.7181 118.456 11.5275 118.383 11.3691C118.31 11.2063 118.196 11.0799 118.042 10.99C117.892 10.9 117.698 10.8551 117.458 10.8551C117.252 10.8551 117.074 10.8915 116.924 10.9643C116.774 11.0328 116.659 11.1335 116.577 11.2663C116.496 11.3947 116.455 11.5468 116.455 11.7224H114.605C114.605 11.4269 114.674 11.1463 114.811 10.8808C114.948 10.6152 115.147 10.3818 115.408 10.1805C115.669 9.97488 115.98 9.81426 116.34 9.69862C116.704 9.58297 117.111 9.52515 117.56 9.52515C118.1 9.52515 118.58 9.61509 119 9.79499C119.419 9.97488 119.749 10.2447 119.989 10.6045C120.233 10.9643 120.355 11.414 120.355 11.9537V14.9284C120.355 15.3096 120.379 15.6222 120.426 15.8664C120.473 16.1062 120.542 16.3161 120.631 16.496V16.6052H118.762C118.672 16.4168 118.603 16.1812 118.556 15.8985C118.513 15.6115 118.492 15.3246 118.492 15.0376ZM118.736 12.3713L118.749 13.4185H117.715C117.47 13.4185 117.258 13.4464 117.079 13.5021C116.899 13.5578 116.751 13.637 116.635 13.7398C116.52 13.8383 116.434 13.9539 116.378 14.0867C116.327 14.2195 116.301 14.3651 116.301 14.5236C116.301 14.6821 116.338 14.8256 116.41 14.9541C116.483 15.0783 116.588 15.1768 116.725 15.2496C116.862 15.3181 117.023 15.3524 117.207 15.3524C117.485 15.3524 117.727 15.2967 117.933 15.1854C118.139 15.074 118.297 14.9369 118.409 14.7742C118.524 14.6114 118.584 14.4572 118.588 14.3116L119.077 15.0954C119.008 15.271 118.914 15.4531 118.794 15.6415C118.678 15.83 118.531 16.0077 118.351 16.1748C118.171 16.3375 117.954 16.4724 117.702 16.5795C117.449 16.6823 117.149 16.7337 116.802 16.7337C116.361 16.7337 115.961 16.6459 115.601 16.4703C115.245 16.2904 114.963 16.0441 114.753 15.7315C114.547 15.4145 114.444 15.0547 114.444 14.6521C114.444 14.288 114.513 13.9647 114.65 13.682C114.787 13.3993 114.988 13.1616 115.254 12.9688C115.524 12.7718 115.86 12.624 116.263 12.5255C116.665 12.4227 117.132 12.3713 117.663 12.3713H118.736ZM124.653 15.2882C124.88 15.2882 125.082 15.2453 125.257 15.1597C125.433 15.0697 125.57 14.9455 125.668 14.787C125.771 14.6243 125.825 14.4337 125.829 14.2152H127.57C127.566 14.7035 127.435 15.1382 127.178 15.5194C126.921 15.8964 126.577 16.194 126.144 16.4125C125.711 16.6266 125.227 16.7337 124.692 16.7337C124.152 16.7337 123.681 16.6438 123.278 16.4639C122.88 16.284 122.548 16.0356 122.283 15.7186C122.017 15.3974 121.818 15.0247 121.685 14.6007C121.552 14.1724 121.486 13.7141 121.486 13.2258V13.0395C121.486 12.5469 121.552 12.0886 121.685 11.6646C121.818 11.2363 122.017 10.8636 122.283 10.5467C122.548 10.2254 122.88 9.97488 123.278 9.79499C123.677 9.61509 124.144 9.52515 124.679 9.52515C125.249 9.52515 125.748 9.63437 126.176 9.85281C126.609 10.0713 126.947 10.3839 127.191 10.7908C127.44 11.1934 127.566 11.671 127.57 12.2235H125.829C125.825 11.9923 125.776 11.7824 125.681 11.5939C125.591 11.4055 125.459 11.2555 125.283 11.1442C125.112 11.0285 124.9 10.9707 124.647 10.9707C124.377 10.9707 124.157 11.0285 123.985 11.1442C123.814 11.2555 123.681 11.4097 123.587 11.6068C123.493 11.7995 123.426 12.0201 123.388 12.2685C123.353 12.5127 123.336 12.7696 123.336 13.0395V13.2258C123.336 13.4956 123.353 13.7548 123.388 14.0032C123.422 14.2516 123.486 14.4722 123.58 14.6649C123.679 14.8577 123.814 15.0097 123.985 15.1211C124.157 15.2325 124.379 15.2882 124.653 15.2882ZM131.843 16.7337C131.303 16.7337 130.819 16.6481 130.391 16.4767C129.962 16.3011 129.598 16.0591 129.298 15.7507C129.003 15.4423 128.776 15.0847 128.617 14.6778C128.459 14.2666 128.38 13.8297 128.38 13.3671V13.1102C128.38 12.5833 128.455 12.1015 128.605 11.6646C128.755 11.2277 128.969 10.8486 129.247 10.5274C129.53 10.2062 129.872 9.95989 130.275 9.78856C130.678 9.61295 131.132 9.52515 131.637 9.52515C132.13 9.52515 132.567 9.60653 132.948 9.76929C133.329 9.93205 133.648 10.1633 133.905 10.4632C134.166 10.763 134.363 11.1228 134.496 11.5425C134.629 11.958 134.695 12.4206 134.695 12.9303V13.7012H129.17V12.4677H132.877V12.3263C132.877 12.0693 132.83 11.8402 132.736 11.6389C132.646 11.4333 132.509 11.2705 132.325 11.1506C132.14 11.0307 131.905 10.9707 131.618 10.9707C131.374 10.9707 131.164 11.0243 130.988 11.1313C130.813 11.2384 130.669 11.3883 130.558 11.5811C130.451 11.7738 130.369 12.0008 130.314 12.2621C130.262 12.5191 130.236 12.8018 130.236 13.1102V13.3671C130.236 13.6456 130.275 13.9025 130.352 14.1381C130.434 14.3737 130.547 14.5771 130.693 14.7485C130.843 14.9198 131.022 15.0526 131.232 15.1468C131.446 15.241 131.688 15.2882 131.958 15.2882C132.292 15.2882 132.603 15.2239 132.89 15.0954C133.181 14.9626 133.432 14.7635 133.642 14.4979L134.541 15.4745C134.395 15.6843 134.196 15.8857 133.944 16.0784C133.695 16.2711 133.395 16.4296 133.044 16.5538C132.693 16.6738 132.292 16.7337 131.843 16.7337Z" fill="#454545"/>
</svg>
