<svg width="14" height="15" viewBox="0 0 14 15" fill="none" xmlns="http://www.w3.org/2000/svg">
<path d="M9.83781 5.41475C10.8063 6.10675 11.9929 6.51391 13.2743 6.51391V4.04928C13.0318 4.04937 12.7899 4.02407 12.5526 3.97378V5.9138C11.2713 5.9138 10.0849 5.50669 9.11616 4.81475V9.84439C9.11616 12.3605 7.07539 14.4 4.55818 14.4C3.61895 14.4 2.74593 14.1162 2.02075 13.6295C2.84845 14.4754 4.00272 15.0001 5.27968 15.0001C7.79709 15.0001 9.83792 12.9606 9.83792 10.4443V5.41475H9.83781ZM10.7281 2.92824C10.2331 2.38777 9.90813 1.68929 9.83781 0.917082V0.600098H9.15391C9.32607 1.58154 9.91331 2.42002 10.7281 2.92824ZM3.61288 11.6987C3.33631 11.3364 3.18682 10.893 3.18752 10.4371C3.18752 9.28639 4.12095 8.35333 5.27258 8.35333C5.48716 8.35321 5.70048 8.38614 5.90504 8.45097V5.93122C5.66599 5.8985 5.42477 5.88455 5.18365 5.88969V7.85091C4.97899 7.78607 4.76556 7.75316 4.55087 7.75332C3.39929 7.75332 2.46592 8.68628 2.46592 9.83718C2.46592 10.651 2.93245 11.3555 3.61288 11.6987Z" fill="#FF004F"/>
<path d="M9.11614 4.8147C10.0849 5.50664 11.2712 5.91375 12.5526 5.91375V3.97373C11.8373 3.82143 11.2041 3.44787 10.7281 2.92824C9.91319 2.41997 9.32604 1.58149 9.15389 0.600098H7.3575V10.4442C7.35341 11.5919 6.42159 12.5211 5.27245 12.5211C4.59534 12.5211 3.99373 12.1985 3.61275 11.6987C2.93243 11.3555 2.46584 10.6509 2.46584 9.83724C2.46584 8.68644 3.39922 7.75337 4.5508 7.75337C4.77143 7.75337 4.98409 7.7877 5.18357 7.85096V5.88974C2.71054 5.94081 0.72168 7.96043 0.72168 10.4443C0.72168 11.6842 1.21694 12.8083 2.02078 13.6296C2.74596 14.1162 3.61893 14.4001 4.55821 14.4001C7.07547 14.4001 9.11619 12.3605 9.11619 9.84439L9.11614 4.8147Z" fill="black"/>
<path d="M12.5526 3.97358V3.44913C11.9076 3.45006 11.2753 3.26953 10.728 2.92815C11.2125 3.45821 11.8503 3.82374 12.5526 3.97369M9.15381 0.599952C9.13741 0.506178 9.12482 0.411778 9.11606 0.316984V0H6.63567V9.84425C6.63173 10.9918 5.69991 11.921 4.55072 11.921C4.22493 11.9215 3.9036 11.8453 3.61268 11.6987C3.99365 12.1984 4.59526 12.521 5.27237 12.521C6.42146 12.521 7.35338 11.5918 7.35743 10.4442V0.600004L9.15381 0.599952ZM5.18365 5.88959V5.33117C4.97638 5.30288 4.76743 5.28871 4.55824 5.28876C2.04072 5.28876 0 7.32839 0 9.84425C0 11.4216 0.802028 12.8117 2.02081 13.6294C1.21696 12.8081 0.721706 11.684 0.721706 10.4441C0.721706 7.96033 2.71052 5.94067 5.18365 5.88959Z" fill="#00F2EA"/>
</svg>
