<svg width="20" height="21" viewBox="0 0 20 21" fill="none" xmlns="http://www.w3.org/2000/svg">
<path d="M7.01235 19.6667C7.38356 19.6667 7.68448 19.2868 7.68448 18.8182C7.68448 18.3496 7.38356 17.9697 7.01235 17.9697C6.64114 17.9697 6.34021 18.3496 6.34021 18.8182C6.34021 19.2868 6.64114 19.6667 7.01235 19.6667Z" stroke="white" stroke-width="2" stroke-linecap="round" stroke-linejoin="round"/>
<path d="M16.422 19.6667C16.7932 19.6667 17.0942 19.2868 17.0942 18.8182C17.0942 18.3496 16.7932 17.9697 16.422 17.9697C16.0508 17.9697 15.7499 18.3496 15.7499 18.8182C15.7499 19.2868 16.0508 19.6667 16.422 19.6667Z" stroke="white" stroke-width="2" stroke-linecap="round" stroke-linejoin="round"/>
<path d="M1.63513 1H4.32368L6.34009 15.4242H17.0943" stroke="white" stroke-width="2" stroke-linecap="round" stroke-linejoin="round"/>
<path d="M6.34 12.0303H16.8186C16.8963 12.0303 16.9717 11.9964 17.0318 11.9342C17.0919 11.872 17.1331 11.7855 17.1484 11.6893L18.3582 4.05291C18.368 3.99133 18.3668 3.92779 18.3547 3.86686C18.3427 3.80594 18.3201 3.74915 18.2885 3.7006C18.257 3.65204 18.2173 3.61294 18.1723 3.5861C18.1273 3.55926 18.0782 3.54537 18.0285 3.54541H4.99573" stroke="white" stroke-width="2" stroke-linecap="round" stroke-linejoin="round"/>
</svg>
