<svg width="26" height="26" viewBox="0 0 26 26" fill="none" xmlns="http://www.w3.org/2000/svg">
<path d="M18 10.5C18 11.8261 17.4732 13.0979 16.5355 14.0355C15.5979 14.9732 14.3261 15.5 13 15.5C11.6739 15.5 10.4021 14.9732 9.46447 14.0355C8.52678 13.0979 8 11.8261 8 10.5C8 9.17392 8.52678 7.90215 9.46447 6.96447C10.4021 6.02678 11.6739 5.5 13 5.5C14.3261 5.5 15.5979 6.02678 16.5355 6.96447C17.4732 7.90215 18 9.17392 18 10.5Z" fill="#3F3F3F"/>
<path fill-rule="evenodd" clip-rule="evenodd" d="M12.49 25.49C5.82313 25.2225 0.5 19.7325 0.5 13C0.5 6.09625 6.09625 0.5 13 0.5C19.9037 0.5 25.5 6.09625 25.5 13C25.5 19.9037 19.9037 25.5 13 25.5C12.9429 25.5004 12.8858 25.5004 12.8287 25.5C12.7156 25.5 12.6025 25.4963 12.49 25.49ZM4.97875 20.8875C4.88529 20.6191 4.85348 20.3331 4.88568 20.0507C4.91787 19.7684 5.01325 19.4969 5.16474 19.2564C5.31622 19.016 5.51991 18.8127 5.7607 18.6617C6.00149 18.5108 6.27319 18.416 6.55563 18.3844C11.4281 17.845 14.6019 17.8937 19.4506 18.3956C19.7334 18.4251 20.0058 18.5187 20.247 18.6693C20.4882 18.8199 20.6918 19.0236 20.8423 19.2648C20.9929 19.506 21.0864 19.7784 21.1158 20.0612C21.1452 20.3441 21.1096 20.6299 21.0119 20.8969C23.09 18.7943 24.2537 15.9562 24.25 13C24.25 6.78688 19.2131 1.75 13 1.75C6.78688 1.75 1.75 6.78688 1.75 13C1.75 16.0725 2.98188 18.8575 4.97875 20.8875Z" fill="#3F3F3F"/>
</svg>
