<svg width="15" height="15" viewBox="0 0 15 15" fill="none" xmlns="http://www.w3.org/2000/svg">
<path d="M11.4844 0H3.51562C1.574 0 0 1.574 0 3.51562V11.4844C0 13.426 1.574 15 3.51562 15H11.4844C13.426 15 15 13.426 15 11.4844V3.51562C15 1.574 13.426 0 11.4844 0Z" fill="url(#paint0_radial_265_185)"/>
<path d="M11.4844 0H3.51562C1.574 0 0 1.574 0 3.51562V11.4844C0 13.426 1.574 15 3.51562 15H11.4844C13.426 15 15 13.426 15 11.4844V3.51562C15 1.574 13.426 0 11.4844 0Z" fill="url(#paint1_radial_265_185)"/>
<path d="M7.50053 1.64062C5.90924 1.64062 5.70949 1.6476 5.08453 1.67602C4.46074 1.70461 4.03494 1.80334 3.6624 1.94824C3.27697 2.09789 2.95008 2.29811 2.62441 2.62389C2.29846 2.94961 2.09824 3.2765 1.94813 3.66176C1.80281 4.03441 1.70396 4.46039 1.6759 5.08389C1.64795 5.70891 1.64062 5.90871 1.64062 7.50006C1.64062 9.09141 1.64766 9.29051 1.67602 9.91547C1.70473 10.5393 1.80346 10.9651 1.94824 11.3376C2.09801 11.723 2.29822 12.0499 2.624 12.3756C2.94961 12.7015 3.2765 12.9022 3.66164 13.0519C4.03447 13.1968 4.46033 13.2955 5.084 13.3241C5.70902 13.3525 5.90859 13.3595 7.49982 13.3595C9.09129 13.3595 9.29039 13.3525 9.91535 13.3241C10.5391 13.2955 10.9654 13.1968 11.3382 13.0519C11.7235 12.9022 12.0499 12.7015 12.3755 12.3756C12.7014 12.0499 12.9016 11.723 13.0518 11.3378C13.1958 10.9651 13.2947 10.5391 13.324 9.91559C13.3521 9.29062 13.3594 9.09141 13.3594 7.50006C13.3594 5.90871 13.3521 5.70902 13.324 5.084C13.2947 4.46021 13.1958 4.03447 13.0518 3.66193C12.9016 3.2765 12.7014 2.94961 12.3755 2.62389C12.0496 2.29799 11.7236 2.09777 11.3379 1.9483C10.9644 1.80334 10.5383 1.70455 9.91453 1.67602C9.28951 1.6476 9.09053 1.64062 7.49871 1.64062H7.50053ZM6.97488 2.69654C7.13092 2.69631 7.305 2.69654 7.50053 2.69654C9.06504 2.69654 9.25043 2.70217 9.86824 2.73023C10.4395 2.75637 10.7496 2.85182 10.9562 2.93203C11.2296 3.0382 11.4246 3.16518 11.6295 3.37031C11.8346 3.57539 11.9615 3.77068 12.068 4.04414C12.1482 4.25039 12.2438 4.56047 12.2698 5.13176C12.2978 5.74945 12.3039 5.93496 12.3039 7.49871C12.3039 9.06246 12.2978 9.24803 12.2698 9.86566C12.2436 10.437 12.1482 10.747 12.068 10.9533C11.9618 11.2268 11.8346 11.4215 11.6295 11.6265C11.4244 11.8315 11.2297 11.9585 10.9562 12.0647C10.7498 12.1453 10.4395 12.2405 9.86824 12.2666C9.25055 12.2947 9.06504 12.3008 7.50053 12.3008C5.93596 12.3008 5.75051 12.2947 5.13287 12.2666C4.56158 12.2402 4.2515 12.1448 4.04479 12.0646C3.77139 11.9583 3.57604 11.8314 3.37096 11.6263C3.16588 11.4213 3.03896 11.2264 2.9325 10.9529C2.85229 10.7466 2.75672 10.4365 2.7307 9.8652C2.70264 9.2475 2.69701 9.06199 2.69701 7.49725C2.69701 5.93256 2.70264 5.74799 2.7307 5.13029C2.75684 4.559 2.85229 4.24893 2.9325 4.04238C3.03873 3.76893 3.16588 3.57363 3.37102 3.36855C3.57609 3.16348 3.77139 3.0365 4.04484 2.9301C4.25139 2.84953 4.56158 2.75432 5.13287 2.72807C5.6734 2.70363 5.88287 2.69631 6.97488 2.69508V2.69654ZM10.6283 3.66943C10.2401 3.66943 9.92514 3.98408 9.92514 4.37232C9.92514 4.76051 10.2401 5.07545 10.6283 5.07545C11.0164 5.07545 11.3314 4.76051 11.3314 4.37232C11.3314 3.98414 11.0164 3.6692 10.6283 3.6692V3.66943ZM7.50053 4.49098C5.83881 4.49098 4.4915 5.83828 4.4915 7.50006C4.4915 9.16184 5.83881 10.5085 7.50053 10.5085C9.1623 10.5085 10.5091 9.16184 10.5091 7.50006C10.5091 5.83834 9.16219 4.49098 7.50041 4.49098H7.50053ZM7.50053 5.54689C8.57918 5.54689 9.45369 6.42129 9.45369 7.50006C9.45369 8.57871 8.57918 9.45322 7.50053 9.45322C6.42182 9.45322 5.54742 8.57871 5.54742 7.50006C5.54742 6.42129 6.42182 5.54689 7.50053 5.54689Z" fill="white"/>
<defs>
<radialGradient id="paint0_radial_265_185" cx="0" cy="0" r="1" gradientUnits="userSpaceOnUse" gradientTransform="translate(3.98437 16.1553) rotate(-90) scale(14.8661 13.8267)">
<stop stop-color="#FFDD55"/>
<stop offset="0.1" stop-color="#FFDD55"/>
<stop offset="0.5" stop-color="#FF543E"/>
<stop offset="1" stop-color="#C837AB"/>
</radialGradient>
<radialGradient id="paint1_radial_265_185" cx="0" cy="0" r="1" gradientUnits="userSpaceOnUse" gradientTransform="translate(-2.51256 1.08053) rotate(78.681) scale(6.64523 27.3919)">
<stop stop-color="#3771C8"/>
<stop offset="0.128" stop-color="#3771C8"/>
<stop offset="1" stop-color="#6600FF" stop-opacity="0"/>
</radialGradient>
</defs>
</svg>
